<?xml version="1.0" standalone="no"?>
<!DOCTYPE svg PUBLIC "-//W3C//DTD SVG 1.1//EN"
"http://www.w3.org/Graphics/SVG/1.1/DTD/svg11.dtd">

<svg width="622" height="348" view_box="0 0 622 348"
xmlns="http://www.w3.org/2000/svg"
xmlns:link="http://www.w3.org/1999/xlink">\n\n<desc>Généré par Mocodo 2.3.7 le Sun, 17 May 2020 05:39:23</desc>

<rect id="frame" x="0" y="0" width="622" height="348" fill="none" stroke="none" stroke-width="0"/>

<!-- Entity CATEGORY -->
<g id="entity-CATEGORY">
	<g id="frame-CATEGORY">
		<rect x="46" y="148" width="138" height="26" fill="#97b8ff" stroke="#97b8ff" stroke-width="0"/>
		<rect x="46" y="174.0" width="138" height="44" fill="#c0d4ff" stroke="#c0d4ff" stroke-width="0"/>
		<rect x="46" y="148" width="138" height="70" fill="none" stroke="#578dff" stroke-width="1.5"/>
		<line x1="46" y1="174" x2="184" y2="174" stroke="#578dff" stroke-width="1"/>
	</g>
	<text x="81" y="166.6" fill="#131114" font-family="Courier New" font-size="14">CATEGORY</text>
	<text x="51" y="192.6" fill="#3e3c42" font-family="Courier New" font-size="14">category number</text>
	<line x1="51" y1="195.0" x2="178" y2="195.0" stroke="#3e3c42" stroke-width="1"/>
	<text x="51" y="210.6" fill="#3e3c42" font-family="Courier New" font-size="14">category name</text>
</g>

<!-- Entity MOVIE -->
<g id="entity-MOVIE">
	<g id="frame-MOVIE">
		<rect x="254" y="130" width="130" height="26" fill="#97b8ff" stroke="#97b8ff" stroke-width="0"/>
		<rect x="254" y="156.0" width="130" height="80" fill="#c0d4ff" stroke="#c0d4ff" stroke-width="0"/>
		<rect x="254" y="130" width="130" height="106" fill="none" stroke="#578dff" stroke-width="1.5"/>
		<line x1="254" y1="156" x2="384" y2="156" stroke="#578dff" stroke-width="1"/>
	</g>
	<text x="297" y="148.6" fill="#131114" font-family="Courier New" font-size="14">MOVIE</text>
	<text x="259" y="174.6" fill="#3e3c42" font-family="Courier New" font-size="14">movie number</text>
	<line x1="259" y1="177.0" x2="361" y2="177.0" stroke="#3e3c42" stroke-width="1"/>
	<text x="259" y="192.6" fill="#3e3c42" font-family="Courier New" font-size="14">movie title</text>
	<text x="259" y="210.6" fill="#3e3c42" font-family="Courier New" font-size="14">release_date</text>
	<text x="259" y="228.6" fill="#3e3c42" font-family="Courier New" font-size="14">#person number</text>
</g>

<!-- Entity WRITE -->
<g id="entity-WRITE">
	<g id="frame-WRITE">
		<rect x="254" y="260" width="130" height="26" fill="#97b8ff" stroke="#97b8ff" stroke-width="0"/>
		<rect x="254" y="286.0" width="130" height="44" fill="#c0d4ff" stroke="#c0d4ff" stroke-width="0"/>
		<rect x="254" y="260" width="130" height="70" fill="none" stroke="#578dff" stroke-width="1.5"/>
		<line x1="254" y1="286" x2="384" y2="286" stroke="#578dff" stroke-width="1"/>
	</g>
	<text x="297" y="278.6" fill="#131114" font-family="Courier New" font-size="14">WRITE</text>
	<text x="259" y="304.6" fill="#3e3c42" font-family="Courier New" font-size="14">#person number</text>
	<line x1="259" y1="307.0" x2="378" y2="307.0" stroke="#3e3c42" stroke-width="1"/>
	<text x="259" y="322.6" fill="#3e3c42" font-family="Courier New" font-size="14">#movie number</text>
	<line x1="259" y1="325.0" x2="369" y2="325.0" stroke="#3e3c42" stroke-width="1"/>
</g>

<!-- Entity PERSON -->
<g id="entity-PERSON">
	<g id="frame-PERSON">
		<rect x="455" y="251" width="120" height="26" fill="#97b8ff" stroke="#97b8ff" stroke-width="0"/>
		<rect x="455" y="277.0" width="120" height="62" fill="#c0d4ff" stroke="#c0d4ff" stroke-width="0"/>
		<rect x="455" y="251" width="120" height="88" fill="none" stroke="#578dff" stroke-width="1.5"/>
		<line x1="455" y1="277" x2="575" y2="277" stroke="#578dff" stroke-width="1"/>
	</g>
	<text x="489" y="269.6" fill="#131114" font-family="Courier New" font-size="14">PERSON</text>
	<text x="460" y="295.6" fill="#3e3c42" font-family="Courier New" font-size="14">person number</text>
	<line x1="460" y1="298.0" x2="570" y2="298.0" stroke="#3e3c42" stroke-width="1"/>
	<text x="460" y="313.6" fill="#3e3c42" font-family="Courier New" font-size="14">name</text>
	<text x="460" y="331.6" fill="#3e3c42" font-family="Courier New" font-size="14">birth_date</text>
</g>

<!-- Entity ACT -->
<g id="entity-ACT">
	<g id="frame-ACT">
		<rect x="450" y="139" width="130" height="26" fill="#97b8ff" stroke="#97b8ff" stroke-width="0"/>
		<rect x="450" y="165.0" width="130" height="62" fill="#c0d4ff" stroke="#c0d4ff" stroke-width="0"/>
		<rect x="450" y="139" width="130" height="88" fill="none" stroke="#578dff" stroke-width="1.5"/>
		<line x1="450" y1="165" x2="580" y2="165" stroke="#578dff" stroke-width="1"/>
	</g>
	<text x="502" y="157.6" fill="#131114" font-family="Courier New" font-size="14">ACT</text>
	<text x="455" y="183.6" fill="#3e3c42" font-family="Courier New" font-size="14">#movie number</text>
	<line x1="455" y1="186.0" x2="565" y2="186.0" stroke="#3e3c42" stroke-width="1"/>
	<text x="455" y="201.6" fill="#3e3c42" font-family="Courier New" font-size="14">#person number</text>
	<line x1="455" y1="204.0" x2="574" y2="204.0" stroke="#3e3c42" stroke-width="1"/>
	<text x="455" y="219.6" fill="#3e3c42" font-family="Courier New" font-size="14">character name</text>
</g>

<!-- Entity POST -->
<g id="entity-POST">
	<g id="frame-POST">
		<rect x="463" y="9" width="104" height="26" fill="#97b8ff" stroke="#97b8ff" stroke-width="0"/>
		<rect x="463" y="35.0" width="104" height="80" fill="#c0d4ff" stroke="#c0d4ff" stroke-width="0"/>
		<rect x="463" y="9" width="104" height="106" fill="none" stroke="#578dff" stroke-width="1.5"/>
		<line x1="463" y1="35" x2="567" y2="35" stroke="#578dff" stroke-width="1"/>
	</g>
	<text x="497" y="27.6" fill="#131114" font-family="Courier New" font-size="14">POST</text>
	<text x="468" y="53.6" fill="#3e3c42" font-family="Courier New" font-size="14">post number</text>
	<line x1="468" y1="56.0" x2="562" y2="56.0" stroke="#3e3c42" stroke-width="1"/>
	<text x="468" y="71.6" fill="#3e3c42" font-family="Courier New" font-size="14">post title</text>
	<text x="468" y="89.6" fill="#3e3c42" font-family="Courier New" font-size="14">content</text>
	<text x="468" y="107.6" fill="#3e3c42" font-family="Courier New" font-size="14">date</text>
</g>

<!-- Entity HAS -->
<g id="entity-HAS">
	<g id="frame-HAS">
		<rect x="42" y="27" width="146" height="26" fill="#97b8ff" stroke="#97b8ff" stroke-width="0"/>
		<rect x="42" y="53.0" width="146" height="44" fill="#c0d4ff" stroke="#c0d4ff" stroke-width="0"/>
		<rect x="42" y="27" width="146" height="70" fill="none" stroke="#578dff" stroke-width="1.5"/>
		<line x1="42" y1="53" x2="188" y2="53" stroke="#578dff" stroke-width="1"/>
	</g>
	<text x="102" y="45.6" fill="#131114" font-family="Courier New" font-size="14">HAS</text>
	<text x="47" y="71.6" fill="#3e3c42" font-family="Courier New" font-size="14">#movie number</text>
	<line x1="47" y1="74.0" x2="157" y2="74.0" stroke="#3e3c42" stroke-width="1"/>
	<text x="47" y="89.6" fill="#3e3c42" font-family="Courier New" font-size="14">#category number</text>
	<line x1="47" y1="92.0" x2="183" y2="92.0" stroke="#3e3c42" stroke-width="1"/>
</g>

<!-- Entity REFER -->
<g id="entity-REFER">
	<g id="frame-REFER">
		<rect x="259" y="27" width="120" height="26" fill="#97b8ff" stroke="#97b8ff" stroke-width="0"/>
		<rect x="259" y="53.0" width="120" height="44" fill="#c0d4ff" stroke="#c0d4ff" stroke-width="0"/>
		<rect x="259" y="27" width="120" height="70" fill="none" stroke="#578dff" stroke-width="1.5"/>
		<line x1="259" y1="53" x2="379" y2="53" stroke="#578dff" stroke-width="1"/>
	</g>
	<text x="297" y="45.6" fill="#131114" font-family="Courier New" font-size="14">REFER</text>
	<text x="264" y="71.6" fill="#3e3c42" font-family="Courier New" font-size="14">#post number</text>
	<line x1="264" y1="74.0" x2="366" y2="74.0" stroke="#3e3c42" stroke-width="1"/>
	<text x="264" y="89.6" fill="#3e3c42" font-family="Courier New" font-size="14">#movie number</text>
	<line x1="264" y1="92.0" x2="374" y2="92.0" stroke="#3e3c42" stroke-width="1"/>
</g>

<!-- Link from "person number" (MOVIE) to "person number" (PERSON) -->
<path d="M384 224.0 C 419.5 257.5 407.666666667 291.0 455 291.0" fill="none" stroke="#726f83" stroke-width="1"/>
<path d="M 455 291.0 L 443.0 297.0 L 447.0 291.0 L 443.0 285.0 Z" fill="#726f83" stroke-width="0"/>
<circle cx="384" cy="224.0" r="1.5" stroke="#726f83" stroke-width="1.5" fill="#726f83"/>

<!-- Link from "person number" (WRITE) to "person number" (PERSON) -->
<path d="M384 300.0 C 419.5 295.5 407.666666667 291.0 455 291.0" fill="none" stroke="#726f83" stroke-width="1"/>
<path d="M 455 291.0 L 443.0 297.0 L 447.0 291.0 L 443.0 285.0 Z" fill="#726f83" stroke-width="0"/>
<circle cx="384" cy="300.0" r="1.5" stroke="#726f83" stroke-width="1.5" fill="#726f83"/>

<!-- Link from "movie number" (WRITE) to "movie number" (MOVIE) -->
<path d="M254 318.0 C 198 244.0 198 170.0 254 170.0" fill="none" stroke="#726f83" stroke-width="1"/>
<path d="M 254 170.0 L 242.0 176.0 L 246.0 170.0 L 242.0 164.0 Z" fill="#726f83" stroke-width="0"/>
<circle cx="254" cy="318.0" r="1.5" stroke="#726f83" stroke-width="1.5" fill="#726f83"/>

<!-- Link from "movie number" (ACT) to "movie number" (MOVIE) -->
<path d="M450 179.0 C 417.0 174.5 428.0 170.0 384 170.0" fill="none" stroke="#726f83" stroke-width="1"/>
<path d="M 384 170.0 L 396.0 164.0 L 392.0 170.0 L 396.0 176.0 Z" fill="#726f83" stroke-width="0"/>
<circle cx="450" cy="179.0" r="1.5" stroke="#726f83" stroke-width="1.5" fill="#726f83"/>

<!-- Link from "person number" (ACT) to "person number" (PERSON) -->
<path d="M450 197.0 C 394 244.0 399 291.0 455 291.0" fill="none" stroke="#726f83" stroke-width="1"/>
<path d="M 455 291.0 L 443.0 297.0 L 447.0 291.0 L 443.0 285.0 Z" fill="#726f83" stroke-width="0"/>
<circle cx="450" cy="197.0" r="1.5" stroke="#726f83" stroke-width="1.5" fill="#726f83"/>

<!-- Link from "movie number" (HAS) to "movie number" (MOVIE) -->
<path d="M188 67.0 C 221.0 118.5 210.0 170.0 254 170.0" fill="none" stroke="#726f83" stroke-width="1"/>
<path d="M 254 170.0 L 242.0 176.0 L 246.0 170.0 L 242.0 164.0 Z" fill="#726f83" stroke-width="0"/>
<circle cx="188" cy="67.0" r="1.5" stroke="#726f83" stroke-width="1.5" fill="#726f83"/>

<!-- Link from "category number" (HAS) to "category number" (CATEGORY) -->
<path d="M42 85.0 C -14 136.5 -10 188.0 46 188.0" fill="none" stroke="#726f83" stroke-width="1"/>
<path d="M 46 188.0 L 34.0 194.0 L 38.0 188.0 L 34.0 182.0 Z" fill="#726f83" stroke-width="0"/>
<circle cx="42" cy="85.0" r="1.5" stroke="#726f83" stroke-width="1.5" fill="#726f83"/>

<!-- Link from "post number" (REFER) to "post number" (POST) -->
<path d="M379 67.0 C 421.0 58.0 407.0 49.0 463 49.0" fill="none" stroke="#726f83" stroke-width="1"/>
<path d="M 463 49.0 L 451.0 55.0 L 455.0 49.0 L 451.0 43.0 Z" fill="#726f83" stroke-width="0"/>
<circle cx="379" cy="67.0" r="1.5" stroke="#726f83" stroke-width="1.5" fill="#726f83"/>

<!-- Link from "movie number" (REFER) to "movie number" (MOVIE) -->
<path d="M259 85.0 C 203 127.5 198 170.0 254 170.0" fill="none" stroke="#726f83" stroke-width="1"/>
<path d="M 254 170.0 L 242.0 176.0 L 246.0 170.0 L 242.0 164.0 Z" fill="#726f83" stroke-width="0"/>
<circle cx="259" cy="85.0" r="1.5" stroke="#726f83" stroke-width="1.5" fill="#726f83"/>
</svg>